<svg xmlns="http://www.w3.org/2000/svg" version="1.1" xmlns:xlink="http://www.w3.org/1999/xlink" xmlns:svgjs="http://svgjs.dev/svgjs" viewBox="0 0 800 800"><defs><linearGradient x1="50%" y1="0%" x2="50%" y2="100%" id="ffflurry-grad" gradientTransform="rotate(270)"><stop stop-color="hsl(238, 82%, 13%)" stop-opacity="1" offset="0%"></stop><stop stop-color="#d08770" stop-opacity="1" offset="45%"></stop><stop stop-color="#88c0d0" stop-opacity="1" offset="100%"></stop></linearGradient></defs><rect width="100%" height="100%" fill="hsl(238, 82%, 13%)"></rect><g fill="url(#ffflurry-grad)"><rect width="439" height="4" x="353.5" y="110" rx="2" transform="rotate(59, 573, 112)" opacity="0.18"></rect><rect width="511" height="4" x="492.5" y="335" rx="2" transform="rotate(59, 748, 337)" opacity="0.73"></rect><rect width="58" height="4" x="665" y="24" rx="2" transform="rotate(59, 694, 26)" opacity="0.23"></rect><rect width="168" height="4" x="368" y="752" rx="2" transform="rotate(59, 452, 754)" opacity="0.07"></rect><rect width="53" height="4" x="247.5" y="456" rx="2" transform="rotate(59, 274, 458)" opacity="0.84"></rect><rect width="451" height="4" x="306.5" y="36" rx="2" transform="rotate(59, 532, 38)" opacity="0.99"></rect><rect width="537" height="4" x="-103.5" y="287" rx="2" transform="rotate(59, 165, 289)" opacity="0.85"></rect><rect width="325" height="4" x="464.5" y="401" rx="2" transform="rotate(59, 627, 403)" opacity="0.39"></rect><rect width="444" height="4" x="85" y="561" rx="2" transform="rotate(59, 307, 563)" opacity="0.23"></rect><rect width="535" height="4" x="-220.5" y="285" rx="2" transform="rotate(59, 47, 287)" opacity="0.30"></rect><rect width="457" height="4" x="-37.5" y="384" rx="2" transform="rotate(59, 191, 386)" opacity="0.47"></rect><rect width="366" height="4" x="229" y="586" rx="2" transform="rotate(59, 412, 588)" opacity="0.77"></rect><rect width="260" height="4" x="386" y="171" rx="2" transform="rotate(59, 516, 173)" opacity="0.38"></rect><rect width="242" height="4" x="596" y="621" rx="2" transform="rotate(59, 717, 623)" opacity="0.93"></rect><rect width="73" height="4" x="176.5" y="469" rx="2" transform="rotate(59, 213, 471)" opacity="0.17"></rect><rect width="113" height="4" x="291.5" y="695" rx="2" transform="rotate(59, 348, 697)" opacity="0.47"></rect><rect width="255" height="4" x="286.5" y="53" rx="2" transform="rotate(59, 414, 55)" opacity="0.55"></rect><rect width="410" height="4" x="547" y="216" rx="2" transform="rotate(59, 752, 218)" opacity="0.15"></rect><rect width="570" height="4" x="21" y="89" rx="2" transform="rotate(59, 306, 91)" opacity="0.53"></rect><rect width="390" height="4" x="392" y="241" rx="2" transform="rotate(59, 587, 243)" opacity="0.43"></rect><rect width="334" height="4" x="-73" y="39" rx="2" transform="rotate(59, 94, 41)" opacity="0.88"></rect><rect width="88" height="4" x="686" y="534" rx="2" transform="rotate(59, 730, 536)" opacity="0.97"></rect><rect width="98" height="4" x="91" y="674" rx="2" transform="rotate(59, 140, 676)" opacity="0.67"></rect><rect width="312" height="4" x="-120" y="88" rx="2" transform="rotate(59, 36, 90)" opacity="0.20"></rect><rect width="146" height="4" x="46" y="464" rx="2" transform="rotate(59, 119, 466)" opacity="0.29"></rect><rect width="382" height="4" x="479" y="168" rx="2" transform="rotate(59, 670, 170)" opacity="0.98"></rect><rect width="171" height="4" x="280.5" y="308" rx="2" transform="rotate(59, 366, 310)" opacity="0.16"></rect><rect width="41" height="4" x="504.5" y="784" rx="2" transform="rotate(59, 525, 786)" opacity="0.85"></rect><rect width="68" height="4" x="722" y="726" rx="2" transform="rotate(59, 756, 728)" opacity="0.78"></rect><rect width="74" height="4" x="69" y="363" rx="2" transform="rotate(59, 106, 365)" opacity="0.53"></rect><rect width="331" height="4" x="320.5" y="284" rx="2" transform="rotate(59, 486, 286)" opacity="0.49"></rect><rect width="561" height="4" x="193.5" y="520" rx="2" transform="rotate(59, 474, 522)" opacity="0.92"></rect><rect width="315" height="4" x="264.5" y="172" rx="2" transform="rotate(59, 422, 174)" opacity="0.25"></rect><rect width="129" height="4" x="515.5" y="615" rx="2" transform="rotate(59, 580, 617)" opacity="0.69"></rect><rect width="206" height="4" x="493" y="514" rx="2" transform="rotate(59, 596, 516)" opacity="0.40"></rect><rect width="415" height="4" x="-44.5" y="546" rx="2" transform="rotate(59, 163, 548)" opacity="0.98"></rect><rect width="365" height="4" x="585.5" y="32" rx="2" transform="rotate(59, 768, 34)" opacity="0.39"></rect><rect width="172" height="4" x="256" y="475" rx="2" transform="rotate(59, 342, 477)" opacity="0.54"></rect><rect width="135" height="4" x="175.5" y="711" rx="2" transform="rotate(59, 243, 713)" opacity="0.84"></rect><rect width="234" height="4" x="224" y="224" rx="2" transform="rotate(59, 341, 226)" opacity="0.13"></rect><rect width="115" height="4" x="586.5" y="63" rx="2" transform="rotate(59, 644, 65)" opacity="0.54"></rect><rect width="207" height="4" x="463.5" y="696" rx="2" transform="rotate(59, 567, 698)" opacity="0.72"></rect><rect width="247" height="4" x="-69.5" y="579" rx="2" transform="rotate(59, 54, 581)" opacity="0.84"></rect><rect width="314" height="4" x="320" y="656" rx="2" transform="rotate(59, 477, 658)" opacity="0.28"></rect><rect width="300" height="4" x="151" y="644" rx="2" transform="rotate(59, 301, 646)" opacity="0.46"></rect><rect width="101" height="4" x="614.5" y="736" rx="2" transform="rotate(59, 665, 738)" opacity="0.16"></rect><rect width="111" height="4" x="331.5" y="756" rx="2" transform="rotate(59, 387, 758)" opacity="0.86"></rect><rect width="132" height="4" x="445" y="744" rx="2" transform="rotate(59, 511, 746)" opacity="0.22"></rect><rect width="61" height="4" x="132.5" y="763" rx="2" transform="rotate(59, 163, 765)" opacity="0.75"></rect><rect width="304" height="4" x="375" y="401" rx="2" transform="rotate(59, 527, 403)" opacity="0.80"></rect><rect width="577" height="4" x="-239.5" y="728" rx="2" transform="rotate(59, 49, 730)" opacity="0.71"></rect><rect width="564" height="4" x="-213" y="180" rx="2" transform="rotate(59, 69, 182)" opacity="0.32"></rect><rect width="172" height="4" x="647" y="444" rx="2" transform="rotate(59, 733, 446)" opacity="0.92"></rect><rect width="145" height="4" x="246.5" y="743" rx="2" transform="rotate(59, 319, 745)" opacity="0.10"></rect><rect width="329" height="4" x="52.5" y="617" rx="2" transform="rotate(59, 217, 619)" opacity="0.85"></rect><rect width="131" height="4" x="685.5" y="105" rx="2" transform="rotate(59, 751, 107)" opacity="0.12"></rect><rect width="245" height="4" x="152.5" y="345" rx="2" transform="rotate(59, 275, 347)" opacity="0.83"></rect><rect width="360" height="4" x="-11" y="185" rx="2" transform="rotate(59, 169, 187)" opacity="0.11"></rect><rect width="449" height="4" x="-188.5" y="429" rx="2" transform="rotate(59, 36, 431)" opacity="0.97"></rect><rect width="92" height="4" x="343" y="659" rx="2" transform="rotate(59, 389, 661)" opacity="0.66"></rect><rect width="476" height="4" x="16" y="218" rx="2" transform="rotate(59, 254, 220)" opacity="0.28"></rect><rect width="220" height="4" x="313" y="363" rx="2" transform="rotate(59, 423, 365)" opacity="0.35"></rect><rect width="466" height="4" x="-34" y="65" rx="2" transform="rotate(59, 199, 67)" opacity="0.97"></rect><rect width="366" height="4" x="463" y="301" rx="2" transform="rotate(59, 646, 303)" opacity="0.25"></rect><rect width="296" height="4" x="443" y="766" rx="2" transform="rotate(59, 591, 768)" opacity="0.51"></rect><rect width="364" height="4" x="229" y="440" rx="2" transform="rotate(59, 411, 442)" opacity="0.35"></rect><rect width="179" height="4" x="180.5" y="776" rx="2" transform="rotate(59, 270, 778)" opacity="0.28"></rect></g></svg>