<svg xmlns="http://www.w3.org/2000/svg" version="1.1" xmlns:xlink="http://www.w3.org/1999/xlink" xmlns:svgjs="http://svgjs.dev/svgjs" viewBox="0 0 800 800" opacity="0.19"><defs><linearGradient x1="50%" y1="0%" x2="50%" y2="100%" id="uundulate-grad"><stop stop-color="hsl(162, 100%, 58%)" stop-opacity="1" offset="45%"></stop><stop stop-color="hsl(270, 73%, 53%)" stop-opacity="1" offset="100%"></stop></linearGradient></defs><g stroke-width="8" stroke="url(#uundulate-grad)" fill="none"><path d="M1508.1496418664033 -653.42648714321C1730.004794873299 -284.57821473434626 1779.9072622844183 899.1094812348592 1292.436392504981 1326.6552251225494C804.9655227255441 1754.20096901024 -609.8553800679936 1767.6413559265707 -831.7105330748897 1398.7930835177076C-1053.5656860817858 1029.9448111088436 -259.93921170756187 -16.27073855230924 227.5316580718752 -443.8164824399995C715.0025278513119 -871.3622263276898 1286.294488859507 -1022.2747595520738 1508.1496418664033 -653.42648714321C1730.004794873299 -284.57821473434626 1779.9072622844183 899.1094812348592 1292.436392504981 1326.6552251225494 "></path><path d="M1452.7421429884153 -600.7551444755027C1663.504538344966 -250.3492856870821 1710.9118823855292 874.1540254836634 1247.8145560950638 1280.3224821769695C784.7172298045991 1686.490938870275 -559.3626278492618 1699.2593064407897 -770.1250232058131 1348.8534476523691C-980.8874185623645 998.4475888639486 -226.9422679068516 4.542816685853268 236.15505838361355 -401.6256400074526C699.2523846740785 -807.7940967007585 1241.9797476318636 -951.1610032639231 1452.7421429884153 -600.7551444755027C1663.504538344966 -250.3492856870821 1710.9118823855292 874.1540254836634 1247.8145560950638 1280.3224821769695 "></path><path d="M1397.3346441104268 -548.0839238781077C1597.0042818166335 -216.12047871013033 1641.9165024866402 849.1984476621546 1203.192719685147 1233.9896171610758C764.4689368836539 1618.780786659997 -508.86987563053015 1630.8771348846954 -708.5395133367367 1298.9136897167182C-908.2091510429432 966.9502445487406 -193.94532410614158 25.356249853703048 244.77845869535167 -359.4349196452183C683.5022414968448 -744.2260891441396 1197.6650064042205 -880.0473690460851 1397.3346441104268 -548.0839238781077C1597.0042818166335 -216.12047871013033 1641.9165024866402 849.1984476621546 1203.192719685147 1233.9896171610758 "></path><path d="M1341.9271452324383 -495.4125812104004C1530.5040252883005 -181.89154966286628 1572.9211225877511 824.2429919109584 1158.5708832752298 1187.656874215495C744.2206439627087 1551.0707565200319 -458.3771234117984 1562.4950853989135 -646.9540034676602 1248.9740538513797C-835.5308835235219 935.453022303845 -160.94838030543144 46.16980509186533 253.40185900709002 -317.2440772126715C667.7520983196114 -680.6579595172082 1153.350265176577 -808.9336127579345 1341.9271452324383 -495.4125812104004C1530.5040252883005 -181.89154966286628 1572.9211225877511 824.2429919109584 1158.5708832752298 1187.656874215495 "></path><path d="M1286.519707389607 -442.74123854269305C1464.0038297951237 -147.662620615602 1503.9258037240188 799.2875361597626 1113.9491079004692 1141.3241312699147C723.9724120769199 1483.3607263800668 -407.8843101579105 1494.113035913132 -585.3684325634274 1199.0344179860413C-762.8525549689443 903.95580005895 -127.95137546956505 66.98336033002761 262.0253203539846 -275.0532347801245C652.002016177534 -617.0898298902769 1109.0355849840898 -737.819856469784 1286.519707389607 -442.74123854269305C1464.0038297951237 -147.662620615602 1503.9258037240188 799.2875361597626 1113.9491079004692 1141.3241312699147 "></path><path d="M1231.1122085116185 -390.06992639256373C1397.5035732667907 -113.43372208591597 1434.9304238251298 774.3320498909884 1069.3272714905522 1094.9913578067558C703.7241191559744 1415.6506657225236 -357.3915579391787 1425.730955909772 -523.7829226943509 1149.0947516031242C-690.174287449523 872.4585472964766 -94.95443166885491 87.79688505061188 270.64872066572275 -232.86242286515585C636.2518730003003 -553.5217307809236 1064.7208437564466 -666.7061306992116 1231.1122085116185 -390.06992639256373C1397.5035732667907 -113.43372208591597 1434.9304238251298 774.3320498909884 1069.3272714905522 1094.9913578067558 "></path><path d="M1175.704770668787 -337.39852268970014C1331.0033777736144 -79.20473200349556 1365.935104961397 749.3766551749484 1024.7054961157914 1048.6586758963315C683.4758872701857 1347.9406966177148 -306.8987446852908 1357.3489674591465 -462.1973517901181 1099.155176772942C-617.4959588949454 840.9613860867375 -61.95742683298863 108.61050132393041 279.27218201261735 -190.6715193974528C620.5017908582231 -489.953540118836 1020.4061635639594 -595.5923133759047 1175.704770668787 -337.39852268970014C1331.0033777736144 -79.20473200349556 1365.935104961397 749.3766551749484 1024.7054961157914 1048.6586758963315 "></path><path d="M1120.2972717907987 -284.7272715747271C1264.5031212452811 -44.975894508965666 1296.9397250625084 724.421107871018 980.0836597058744 1002.3258413980166C663.2275943492402 1280.2305749250154 -256.40599246655916 1288.9668264206302 -400.61184192104156 1049.2154493548692C-544.8176913755241 809.4640722891079 -28.96048303227849 129.42396500935843 287.8955823243555 -148.48076851764029C604.7516476809894 -426.385502044639 976.0914223363161 -524.4786486404885 1120.2972717907987 -284.7272715747271C1264.5031212452811 -44.975894508965666 1296.9397250625084 724.421107871018 980.0836597058744 1002.3258413980166 "></path><path d="M1064.8897729128105 -232.0558983894416C1198.0028647169481 -10.746934944123382 1227.9443451636196 699.4656826374 935.4618232959574 955.9931289700141C642.9793014282952 1212.5205753026285 -205.9132402478274 1220.5848074524272 -339.0263320519651 999.2758440071088C-472.1394238561027 777.9668805617907 4.0364607684316525 150.23755076509883 296.5189826360938 -106.28989556751526C589.0015045037558 -362.81734190012946 931.7766811086728 -453.36486183475984 1064.8897729128105 -232.0558983894416C1198.0028647169481 -10.746934944123382 1227.9443451636196 699.4656826374 935.4618232959574 955.9931289700141 "></path><path d="M1009.4822740348225 -179.3845862393124C1131.5026081886153 23.481963585562653 1158.9489652647305 674.5101963686257 890.8399868860404 909.6603555068552C622.73100850735 1144.810514645085 -155.42048802909562 1152.2027274490672 -277.44082218288855 949.336177624192C-399.4611563366814 746.4696277993171 37.033404569141794 171.051075485683 305.14238294783206 -64.0990836525466C573.2513613265223 -299.24924279077624 887.4619398810296 -382.25113606418745 1009.4822740348225 -179.3845862393124C1131.5026081886153 23.481963585562653 1158.9489652647305 674.5101963686257 890.8399868860404 909.6603555068552 "></path><path d="M954.0747751568344 -126.71327408918313C1065.0023516602823 57.7108621152488 1089.953585365842 649.5547100998515 846.2181504761234 863.3275820436966C602.482715586405 1077.1004539875419 -104.92773581036397 1083.8206474457072 -215.85531231381202 899.3965112412757C-326.7828888172601 714.9723750368437 70.03034836985194 191.86460020626726 313.7657832595704 -21.908271737577934C557.5012181492889 -235.681143681423 843.1471986533863 -311.137410293615 954.0747751568344 -126.71327408918313C1065.0023516602823 57.7108621152488 1089.953585365842 649.5547100998515 846.2181504761234 863.3275820436966 "></path><path d="M898.6673067964243 -74.04190090389761C998.5021256495277 91.93982168009109 1020.958235984531 624.5992848662336 801.5963445837845 816.9948696156941C582.2344531830379 1009.3904543651547 -54.434953074054135 1015.4386284775039 -154.26977192715736 849.4569058935153C-254.10459078026065 683.4751833095265 103.0273226881402 212.67818596200777 322.3892140888868 20.282601212547092C541.7511054896333 -172.11298353691353 798.8324879433212 -240.0236234878863 898.6673067964243 -74.04190090389761C998.5021256495277 91.93982168009109 1020.958235984531 624.5992848662336 801.5963445837845 816.9948696156941 "></path><path d="M843.2598384360144 -21.370588753768402C932.0018996387728 126.16872020977712 951.9628866032203 599.6437985974594 756.9745386914456 770.6620961525355C561.9861907796709 941.6803937076115 -3.942170337744301 947.0565484741442 -92.68423154050276 799.5172395105988C-181.42629274326123 651.9779305470531 136.02429700642847 233.49171068259193 331.01264491820325 62.47341312751587C526.0009928299779 -108.5448844275603 754.5177772332559 -168.90989771731387 843.2598384360144 -21.370588753768402C932.0018996387728 126.16872020977712 951.9628866032203 599.6437985974594 756.9745386914456 770.6620961525355 "></path><path d="M787.8523395580264 31.30069287878274C865.50164311044 160.39758822188503 882.9675067043313 574.688281811107 712.3527022815285 724.3292921717984C541.7378978587257 873.9703025324902 46.55058188098741 878.674437953206 -31.098721671426233 749.5775426101038C-108.74802522383987 620.4806472670016 169.0212408071385 254.30520488559796 339.6360452299415 104.6641945249064C510.25084965274436 -44.976815835785146 710.2030360056124 -97.79620246431955 787.8523395580264 31.30069287878274C865.50164311044 160.39758822188503 882.9675067043313 574.688281811107 712.3527022815285 724.3292921717984 "></path><path d="M732.4448711976161 83.97206606406826C799.0014170996851 194.62654778672731 813.9721573230208 549.7328565774891 667.7308963891896 677.9965797437962C521.4896354553586 806.2603029101033 97.04336461729724 810.2924189850028 30.486818715228424 699.6379372623435C-36.06972718684045 588.9834555396844 202.01821512542676 275.1187906413385 348.25947605925785 146.85506747503143C494.5007369930888 18.59134430872433 665.8883252955474 -26.682415658590855 732.4448711976161 83.97206606406826C799.0014170996851 194.62654778672731 813.9721573230208 549.7328565774891 667.7308963891896 677.9965797437962 "></path><path d="M677.0374028372063 136.64334769661934C732.5011910889302 228.85541579883534 744.97680794171 524.7773397911367 623.1090904968507 631.6637757630592C501.24137305199156 738.5502117349819 147.53614735360708 741.9103084640647 92.07235910188302 649.6982403618488C36.608570850159026 557.4861722596328 235.01518944371503 295.9322848443446 356.8829068885743 189.04584887242197C478.7506243334335 82.15941290049943 621.5736145854822 44.43127959440346 677.0374028372063 136.64334769661934C732.5011910889302 228.85541579883534 744.97680794171 524.7773397911367 623.1090904968507 631.6637757630592 "></path><path d="M621.6299192180072 189.31469036432674C666.0009498193864 263.0843448460995 675.9814433016102 499.82188403994064 578.4872693457228 585.3310328174787C480.9930953898354 670.8401815950167 198.02891483112785 673.528258978283 153.65788422974862 599.7586044965103C109.28685362836939 525.9889500147375 268.01214850321423 316.7458400825069 365.5063224591016 231.23669130496887C463.0004964149889 145.72754252743078 577.2588886166279 115.54503588255398 621.6299192180072 189.31469036432674C666.0009498193864 263.0843448460995 675.9814433016102 499.82188403994064 578.4872693457228 585.3310328174787 "></path><path d="M566.222435598808 241.98601777324507C599.5007085498426 297.3132586345746 606.9860786615104 474.86641302995554 533.8654481945948 538.9982746131091C460.7448177276792 603.1301361962626 248.52168230864862 605.1461942337123 215.2434093576142 549.8189533723827C181.9651364065798 494.49171251105315 301.0091075627134 337.5593800618802 374.1297380296289 273.42751847872665C447.2503684965444 209.29565689557307 532.9441626477737 186.65877691191548 566.222435598808 241.98601777324507C599.5007085498426 297.3132586345746 606.9860786615104 474.86641302995554 533.8654481945948 538.9982746131091 "></path><path d="M510.8149519796091 294.65732992337433C533.0004672802986 331.5421571642607 537.9907140214106 449.91092676118126 489.24362704346686 492.6655011499503C440.49654006552316 535.4200755387193 299.0144497861694 536.7641142303524 276.8289344854798 499.8792869894661C254.64341918479016 462.99445974857963 334.0060666222126 358.3729047824644 382.7531536001563 315.6183303936954C431.5002405780999 272.86375600492636 488.62943667891943 257.7725026824879 510.8149519796091 294.65732992337433C533.0004672802986 331.5421571642607 537.9907140214106 449.91092676118126 489.24362704346686 492.6655011499503 "></path><path d="M455.40748361919907 347.32868784987073C466.50024126954384 365.77110147031397 468.9953646400998 424.9554862687742 444.62182115112796 446.33277346315873C420.2482776621561 467.71006065754324 349.5072325224792 468.3820800033598 338.4144748721344 449.93966638291664C327.32171722178964 431.4972527624734 367.0030409405008 379.1864752794158 391.37658442947264 357.8091880850313C415.7501279184445 336.4319008906468 444.31472596885425 328.88627422942756 455.40748361919907 347.32868784987073C466.50024126954384 365.77110147031397 468.9953646400998 424.9554862687742 444.62182115112796 446.33277346315873 "></path></g></svg>