<svg xmlns="http://www.w3.org/2000/svg" version="1.1" xmlns:xlink="http://www.w3.org/1999/xlink" xmlns:svgjs="http://svgjs.dev/svgjs" viewBox="0 0 325 100"><defs><linearGradient x1="50%" y1="0%" x2="50%" y2="100%" id="ssspill-grad"><stop stop-color="#1adfba" stop-opacity="1" offset="45%"></stop><stop stop-color="#0088ae" stop-opacity="1" offset="100%"></stop></linearGradient></defs><rect width="100%" height="100%" fill="#06083d"></rect><g fill="url(#ssspill-grad)">
    <rect width="100%" height="40" fill="#1adfba"></rect>

    <rect x="0" width="7.69%" height="96.66817060054362" rx="15"></rect>
      <rect x="50" width="7.69%" height="69.19760962342738" rx="15"></rect>
      <rect x="100" width="7.69%" height="75.27690477181744" rx="15"></rect>
      <rect x="150" width="7.69%" height="78.91981743666256" rx="15"></rect>
      <rect x="200" width="7.69%" height="92.64176196939405" rx="15"></rect>
      <rect x="250" width="7.69%" height="80.0503548265846" rx="15"></rect>
      <rect x="300" width="7.69%" height="85.45645241120087" rx="15"></rect>
  </g><g fill="#06083d">
    <rect x="25" y="26.507047535847136" width="7.69%" height="60" rx="15"></rect>
      <rect x="75" y="18.213505094489364" width="7.69%" height="60" rx="15"></rect>
      <rect x="125" y="14.618583402625788" width="7.69%" height="60" rx="15"></rect>
      <rect x="175" y="13.68807140135471" width="7.69%" height="60" rx="15"></rect>
      <rect x="225" y="6.488159744922719" width="7.69%" height="60" rx="15"></rect>
      <rect x="275" y="20.31226180197549" width="7.69%" height="60" rx="15"></rect>
  </g></svg>