<svg xmlns="http://www.w3.org/2000/svg" version="1.1" xmlns:xlink="http://www.w3.org/1999/xlink" xmlns:svgjs="http://svgjs.dev/svgjs" viewBox="0 0 800 800" opacity="0.47"><defs><linearGradient gradientTransform="rotate(270)" x1="50%" y1="0%" x2="50%" y2="100%" id="sssquiggly-grad"><stop stop-color="#00336dff" stop-opacity="1" offset="0%"></stop><stop stop-color="#00b4baff" stop-opacity="1" offset="100%"></stop></linearGradient></defs><g stroke-width="6" stroke="url(#sssquiggly-grad)" fill="none" stroke-linecap="round" transform="matrix(1,0,0,1,-5,-496.17596435546875)"><path d="M10,10C35.69444444444444,25.416666666666668,79.86111111111111,92.95833333333333,133.33333333333334,84C186.80555555555557,75.04166666666667,211.11111111111114,-25.916666666666664,266.6666666666667,-33C322.22222222222223,-40.083333333333336,344.44444444444446,60.625,400,50C455.55555555555554,39.375,477.7777777777778,-94,533.3333333333334,-84C588.8888888888889,-74,611.1111111111112,86.125,666.6666666666667,98C722.2222222222223,109.875,772.2222222222223,-0.9583333333333357,800,-27"></path><path d="M10,10C35.69444444444444,25.416666666666668,79.86111111111111,92.95833333333333,133.33333333333334,84C186.80555555555557,75.04166666666667,211.11111111111114,-25.916666666666664,266.6666666666667,-33C322.22222222222223,-40.083333333333336,344.44444444444446,60.625,400,50C455.55555555555554,39.375,477.7777777777778,-94,533.3333333333334,-84C588.8888888888889,-74,611.1111111111112,86.125,666.6666666666667,98C722.2222222222223,109.875,772.2222222222223,-0.9583333333333357,800,-27" transform="matrix(1,0,0,1,0,1778)"></path><path d="M10,10C35.69444444444444,25.416666666666668,79.86111111111111,92.95833333333333,133.33333333333334,84C186.80555555555557,75.04166666666667,211.11111111111114,-25.916666666666664,266.6666666666667,-33C322.22222222222223,-40.083333333333336,344.44444444444446,60.625,400,50C455.55555555555554,39.375,477.7777777777778,-94,533.3333333333334,-84C588.8888888888889,-74,611.1111111111112,86.125,666.6666666666667,98C722.2222222222223,109.875,772.2222222222223,-0.9583333333333357,800,-27" transform="matrix(1,0,0,1,0,1651)"></path><path d="M10,10C35.69444444444444,25.416666666666668,79.86111111111111,92.95833333333333,133.33333333333334,84C186.80555555555557,75.04166666666667,211.11111111111114,-25.916666666666664,266.6666666666667,-33C322.22222222222223,-40.083333333333336,344.44444444444446,60.625,400,50C455.55555555555554,39.375,477.7777777777778,-94,533.3333333333334,-84C588.8888888888889,-74,611.1111111111112,86.125,666.6666666666667,98C722.2222222222223,109.875,772.2222222222223,-0.9583333333333357,800,-27" transform="matrix(1,0,0,1,0,1524)"></path><path d="M10,10C35.69444444444444,25.416666666666668,79.86111111111111,92.95833333333333,133.33333333333334,84C186.80555555555557,75.04166666666667,211.11111111111114,-25.916666666666664,266.6666666666667,-33C322.22222222222223,-40.083333333333336,344.44444444444446,60.625,400,50C455.55555555555554,39.375,477.7777777777778,-94,533.3333333333334,-84C588.8888888888889,-74,611.1111111111112,86.125,666.6666666666667,98C722.2222222222223,109.875,772.2222222222223,-0.9583333333333357,800,-27" transform="matrix(1,0,0,1,0,1397)"></path><path d="M10,10C35.69444444444444,25.416666666666668,79.86111111111111,92.95833333333333,133.33333333333334,84C186.80555555555557,75.04166666666667,211.11111111111114,-25.916666666666664,266.6666666666667,-33C322.22222222222223,-40.083333333333336,344.44444444444446,60.625,400,50C455.55555555555554,39.375,477.7777777777778,-94,533.3333333333334,-84C588.8888888888889,-74,611.1111111111112,86.125,666.6666666666667,98C722.2222222222223,109.875,772.2222222222223,-0.9583333333333357,800,-27" transform="matrix(1,0,0,1,0,1270)"></path><path d="M10,10C35.69444444444444,25.416666666666668,79.86111111111111,92.95833333333333,133.33333333333334,84C186.80555555555557,75.04166666666667,211.11111111111114,-25.916666666666664,266.6666666666667,-33C322.22222222222223,-40.083333333333336,344.44444444444446,60.625,400,50C455.55555555555554,39.375,477.7777777777778,-94,533.3333333333334,-84C588.8888888888889,-74,611.1111111111112,86.125,666.6666666666667,98C722.2222222222223,109.875,772.2222222222223,-0.9583333333333357,800,-27" transform="matrix(1,0,0,1,0,1143)"></path><path d="M10,10C35.69444444444444,25.416666666666668,79.86111111111111,92.95833333333333,133.33333333333334,84C186.80555555555557,75.04166666666667,211.11111111111114,-25.916666666666664,266.6666666666667,-33C322.22222222222223,-40.083333333333336,344.44444444444446,60.625,400,50C455.55555555555554,39.375,477.7777777777778,-94,533.3333333333334,-84C588.8888888888889,-74,611.1111111111112,86.125,666.6666666666667,98C722.2222222222223,109.875,772.2222222222223,-0.9583333333333357,800,-27" transform="matrix(1,0,0,1,0,1016)"></path><path d="M10,10C35.69444444444444,25.416666666666668,79.86111111111111,92.95833333333333,133.33333333333334,84C186.80555555555557,75.04166666666667,211.11111111111114,-25.916666666666664,266.6666666666667,-33C322.22222222222223,-40.083333333333336,344.44444444444446,60.625,400,50C455.55555555555554,39.375,477.7777777777778,-94,533.3333333333334,-84C588.8888888888889,-74,611.1111111111112,86.125,666.6666666666667,98C722.2222222222223,109.875,772.2222222222223,-0.9583333333333357,800,-27" transform="matrix(1,0,0,1,0,889)"></path><path d="M10,10C35.69444444444444,25.416666666666668,79.86111111111111,92.95833333333333,133.33333333333334,84C186.80555555555557,75.04166666666667,211.11111111111114,-25.916666666666664,266.6666666666667,-33C322.22222222222223,-40.083333333333336,344.44444444444446,60.625,400,50C455.55555555555554,39.375,477.7777777777778,-94,533.3333333333334,-84C588.8888888888889,-74,611.1111111111112,86.125,666.6666666666667,98C722.2222222222223,109.875,772.2222222222223,-0.9583333333333357,800,-27" transform="matrix(1,0,0,1,0,762)"></path><path d="M10,10C35.69444444444444,25.416666666666668,79.86111111111111,92.95833333333333,133.33333333333334,84C186.80555555555557,75.04166666666667,211.11111111111114,-25.916666666666664,266.6666666666667,-33C322.22222222222223,-40.083333333333336,344.44444444444446,60.625,400,50C455.55555555555554,39.375,477.7777777777778,-94,533.3333333333334,-84C588.8888888888889,-74,611.1111111111112,86.125,666.6666666666667,98C722.2222222222223,109.875,772.2222222222223,-0.9583333333333357,800,-27" transform="matrix(1,0,0,1,0,635)"></path><path d="M10,10C35.69444444444444,25.416666666666668,79.86111111111111,92.95833333333333,133.33333333333334,84C186.80555555555557,75.04166666666667,211.11111111111114,-25.916666666666664,266.6666666666667,-33C322.22222222222223,-40.083333333333336,344.44444444444446,60.625,400,50C455.55555555555554,39.375,477.7777777777778,-94,533.3333333333334,-84C588.8888888888889,-74,611.1111111111112,86.125,666.6666666666667,98C722.2222222222223,109.875,772.2222222222223,-0.9583333333333357,800,-27" transform="matrix(1,0,0,1,0,508)"></path><path d="M10,10C35.69444444444444,25.416666666666668,79.86111111111111,92.95833333333333,133.33333333333334,84C186.80555555555557,75.04166666666667,211.11111111111114,-25.916666666666664,266.6666666666667,-33C322.22222222222223,-40.083333333333336,344.44444444444446,60.625,400,50C455.55555555555554,39.375,477.7777777777778,-94,533.3333333333334,-84C588.8888888888889,-74,611.1111111111112,86.125,666.6666666666667,98C722.2222222222223,109.875,772.2222222222223,-0.9583333333333357,800,-27" transform="matrix(1,0,0,1,0,381)"></path><path d="M10,10C35.69444444444444,25.416666666666668,79.86111111111111,92.95833333333333,133.33333333333334,84C186.80555555555557,75.04166666666667,211.11111111111114,-25.916666666666664,266.6666666666667,-33C322.22222222222223,-40.083333333333336,344.44444444444446,60.625,400,50C455.55555555555554,39.375,477.7777777777778,-94,533.3333333333334,-84C588.8888888888889,-74,611.1111111111112,86.125,666.6666666666667,98C722.2222222222223,109.875,772.2222222222223,-0.9583333333333357,800,-27" transform="matrix(1,0,0,1,0,254)"></path><path d="M10,10C35.69444444444444,25.416666666666668,79.86111111111111,92.95833333333333,133.33333333333334,84C186.80555555555557,75.04166666666667,211.11111111111114,-25.916666666666664,266.6666666666667,-33C322.22222222222223,-40.083333333333336,344.44444444444446,60.625,400,50C455.55555555555554,39.375,477.7777777777778,-94,533.3333333333334,-84C588.8888888888889,-74,611.1111111111112,86.125,666.6666666666667,98C722.2222222222223,109.875,772.2222222222223,-0.9583333333333357,800,-27" transform="matrix(1,0,0,1,0,127)"></path></g></svg>